<?xml version="1.0" encoding="UTF-8" standalone="no"?>
<!-- Created with Inkscape (http://www.inkscape.org/) -->

<svg
   width="238"
   height="238"
   viewBox="0 0 62.97083 62.970835"
   version="1.1"
   id="svg5"
   inkscape:version="1.1.2 (b8e25be833, 2022-02-05)"
   sodipodi:docname="thumbs-up.svg"
   xmlns:inkscape="http://www.inkscape.org/namespaces/inkscape"
   xmlns:sodipodi="http://sodipodi.sourceforge.net/DTD/sodipodi-0.dtd"
   xmlns="http://www.w3.org/2000/svg"
   xmlns:svg="http://www.w3.org/2000/svg">
  <sodipodi:namedview
     id="namedview7"
     pagecolor="#ffffff"
     bordercolor="#999999"
     borderopacity="1"
     inkscape:pageshadow="0"
     inkscape:pageopacity="0"
     inkscape:pagecheckerboard="0"
     inkscape:document-units="px"
     showgrid="false"
     inkscape:zoom="0.73406285"
     inkscape:cx="343.976"
     inkscape:cy="561.94098"
     inkscape:window-width="1920"
     inkscape:window-height="991"
     inkscape:window-x="-9"
     inkscape:window-y="-9"
     inkscape:window-maximized="1"
     inkscape:current-layer="layer1"
     units="px"
     width="500px" />
  <defs
     id="defs2" />
  <g
     inkscape:label="Layer 1"
     inkscape:groupmode="layer"
     id="layer1">
    <path
       style="fill:#000000;stroke-width:0.264583"
       d="M 25.782171,51.879883 C 15.45457,49.990543 6.5765596,43.751623 1.4737986,34.797443 0.82269163,33.654903 0.21542863,32.380713 0.12432463,31.965923 -0.22376937,30.381063 2.8242306,25.322049 6.4085936,21.535417 11.359848,16.304758 17.703018,12.761543 24.931841,11.188563 27.9654,10.528465 34.981885,10.519548 38.01809,11.171933 c 7.200916,1.547247 13.683698,5.186196 18.604218,10.443015 3.62544,3.873219 6.57048,8.771405 6.22354,10.350975 -0.0911,0.41479 -0.69836,1.68898 -1.34947,2.83152 -4.84083,8.49456 -13.10968,14.57617 -22.86754,16.81874 -3.347571,0.76934 -9.403206,0.89364 -12.846667,0.2637 z m 10.002804,-4.92538 c 8.185457,-1.23382 15.597663,-6.01607 20.336933,-13.1211 0.71079,-1.0656 1.29235,-2.1082 1.29235,-2.31688 0,-0.51218 -0.85914,-1.89422 -2.66389,-4.285228 -6.37211,-8.44203 -17.362425,-12.911894 -27.646139,-11.243942 -8.224828,1.334014 -15.591917,6.085764 -20.1936304,13.02483 -0.745073,1.12352 -1.354677,2.23022 -1.354677,2.45935 0,0.79903 2.794779,4.63242 5.0270834,6.89528 6.838559,6.93217 15.838796,9.99904 25.20197,8.58769 z m -6.83941,-3.70524 c -4.856649,-1.05661 -8.581147,-5.03683 -9.362764,-10.0056 -0.272419,-1.73177 -0.151842,-4.01517 0.246019,-4.65892 0.138689,-0.22441 0.388225,-0.23366 0.913674,-0.0339 1.115654,0.42417 3.35246,0.31533 4.524886,-0.22018 1.399265,-0.639121 2.668066,-1.977237 3.203027,-3.378013 0.400797,-1.049466 0.417621,-2.460466 0.05636,-4.725931 -0.07377,-0.462629 0.125717,-0.559059 1.58651,-0.766896 6.274319,-0.892686 12.240562,3.625663 13.32788,10.09346 0.860475,5.11843 -1.825659,10.3442 -6.493833,12.6335 -2.926863,1.43534 -5.014031,1.71247 -8.001756,1.06246 z"
       id="path1218" />
  </g>
</svg>
