<?xml version="1.0" encoding="UTF-8" standalone="no"?>
<!-- Created with Inkscape (http://www.inkscape.org/) -->

<svg
   width="24"
   height="24"
   viewBox="0 0 6.3499997 6.3500002"
   version="1.1"
   id="svg5"
   xmlns="http://www.w3.org/2000/svg"
   xmlns:svg="http://www.w3.org/2000/svg">
  <defs
     id="defs2" />
  <g
     id="layer1">
    <path
       style="fill:#000000;stroke-width:0.0127106"
       d="m 6.1943683,0.06431418 c 0.08803,0.02748525 0.1542302,0.08291214 0.1986592,0.16632918 0.022682,0.0425862 0.02385,0.10992901 0.02732,1.57611974 0.00255,1.0786457 -4.949e-4,1.5485489 -0.010303,1.5888307 -0.01927,0.079134 -0.069878,0.1478827 -0.1386023,0.1882855 l -0.058091,0.03415 H 5.6286624 c -0.6523929,0 -0.6186802,0.00432 -0.7115059,-0.091256 -0.087611,-0.09021 -0.083687,-0.00605 -0.079933,-1.7144212 0.00323,-1.471909 0.00439,-1.53911295 0.027073,-1.58170974 0.033164,-0.0622654 0.082052,-0.1120567 0.1415436,-0.1441591 C 5.0554939,0.05968989 5.0696042,0.05899378 5.6095957,0.05670707 5.913698,0.05541961 6.1768454,0.05884 6.1943677,0.06431325 Z M 5.5079114,0.57489867 C 5.4310403,0.60974848 5.3958951,0.64426923 5.360181,0.7200032 5.2404249,0.97395055 5.5018213,1.2353466 5.7557687,1.1155909 5.8315026,1.0798769 5.8660234,1.0447311 5.9008733,0.96786049 5.9479536,0.86401195 5.9250332,0.72370278 5.8471321,0.63887912 5.7702817,0.55520025 5.61568,0.52604079 5.5079114,0.57489867 Z M 2.3111845,0.06574866 c 0.3868045,0.02333362 0.6778462,0.10497653 1.2463181,0.34961754 0.3560448,0.15322334 0.4951396,0.20239251 0.6285016,0.22217116 0.052431,0.007776 0.1135743,0.0168371 0.1358731,0.0201351 0.024589,0.003637 0.053349,0.021216 0.073086,0.0446722 l 0.032542,0.0386747 V 2.1254307 3.5098421 L 4.3181955,3.6274892 C 4.1494009,3.8091563 4.0327358,3.9594548 3.7813134,4.3191493 3.5652649,4.6282368 3.4757569,4.7432311 3.2634868,4.9844239 3.1301258,5.1359557 3.0710617,5.2767376 2.9648587,5.6962201 2.8508285,6.1466203 2.7629591,6.3246246 2.624401,6.3859163 2.5775017,6.406662 2.553142,6.4090347 2.465518,6.4013901 2.1302329,6.3721379 1.9016406,6.2292394 1.7783982,5.9718533 1.7105275,5.8301082 1.6862537,5.7358019 1.6676736,5.5416761 1.6385911,5.2378183 1.684238,5.0505634 1.8856245,4.6475917 1.962486,4.4937933 2.0363372,4.336499 2.049739,4.2980491 L 2.074106,4.2281401 1.3728082,4.2215001 C 0.69097662,4.2150404 0.66921777,4.2140739 0.58889163,4.1866765 0.24153105,4.0681987 0.02976878,3.7370733 0.08030997,3.391421 0.10524861,3.2208638 0.17051318,3.0668887 0.27362768,2.9353389 l 0.0369645,-0.047159 -0.0275621,-0.086303 C 0.24345989,2.6779736 0.23426203,2.4190127 0.2645548,2.2817248 0.29083284,2.162633 0.33176929,2.0573976 0.38628152,1.9688047 l 0.039895,-0.064838 -0.0171494,-0.077201 C 0.38534425,1.7201562 0.3892384,1.5033582 0.41680628,1.3936669 0.44524754,1.2805005 0.52027627,1.1191296 0.58140744,1.039645 L 0.62884287,0.9779682 0.61451827,0.86775527 C 0.57729808,0.58137689 0.69614575,0.35344043 0.951493,0.22147777 1.1388528,0.12465126 1.3400678,0.08426048 1.7292194,0.06536338 2.0049972,0.05197121 2.0836597,0.05202357 2.3111845,0.0657477 Z"
       id="path840" />
  </g>
</svg>
