<?xml version="1.0" encoding="UTF-8" standalone="no"?>
<!-- Created with Inkscape (http://www.inkscape.org/) -->

<svg
   width="24"
   height="24"
   viewBox="0 0 6.3499997 6.3500002"
   version="1.1"
   id="svg5"
   xmlns="http://www.w3.org/2000/svg"
   xmlns:svg="http://www.w3.org/2000/svg">
  <defs
     id="defs2" />
  <g
     id="layer1">
    <path
       style="fill:#000000;stroke-width:0.0267632"
       d="M 2.5981024,5.2379622 C 1.5534397,5.0468512 0.65540675,4.4157682 0.1392497,3.5100312 0.0733886,3.3944602 0.01196243,3.2655722 0.00274703,3.2236152 -0.03246355,3.0633032 0.27584928,2.5515712 0.63841657,2.1685442 1.1392483,1.6394492 1.7808758,1.2810442 2.5120894,1.1219332 c 0.3068521,-0.06677 1.0165871,-0.06767 1.3237068,-0.0017 0.7283907,0.156508 1.3841403,0.524597 1.8818633,1.056337 0.3667223,0.391786 0.6646205,0.88725 0.6295266,1.047027 -0.00922,0.04196 -0.070641,0.170845 -0.1365023,0.286416 -0.489662,0.859246 -1.3260769,1.474416 -2.3131089,1.701257 -0.3386152,0.07782 -0.9511578,0.09039 -1.2994725,0.02667 z m 1.0118087,-0.498214 c 0.8279794,-0.124804 1.5777426,-0.608541 2.0571317,-1.327232 0.071898,-0.107788 0.1307244,-0.21325 0.1307244,-0.234359 0,-0.05181 -0.086904,-0.191605 -0.2694592,-0.433461 -0.6445548,-0.853933 -1.7562527,-1.30607 -2.7964761,-1.137353 -0.831962,0.134939 -1.5771615,0.61559 -2.04263627,1.317494 -0.075366,0.113647 -0.13702897,0.225593 -0.13702897,0.24877 0,0.08082 0.2826989,0.46858 0.50850204,0.697474 0.6917374,0.701207 1.6021339,1.011428 2.5492424,0.868667 z M 2.9180876,4.3649532 c -0.4912622,-0.106878 -0.8680045,-0.509487 -0.947067,-1.012091 -0.027556,-0.175173 -0.015359,-0.406145 0.024885,-0.471261 0.014029,-0.0227 0.03927,-0.02364 0.09242,-0.0034 0.1128511,0.04291 0.3391097,0.0319 0.4577035,-0.02227 0.1415392,-0.06465 0.2698816,-0.200003 0.3239942,-0.341695 0.040542,-0.106156 0.042243,-0.248882 0.0057,-0.478039 -0.00746,-0.0468 0.012716,-0.05655 0.1604794,-0.07757 0.6346631,-0.0903 1.2381635,0.366745 1.3481484,1.020979 0.087039,0.517742 -0.1846699,1.046342 -0.6568674,1.27791 -0.2960595,0.145188 -0.5071818,0.173221 -0.8093977,0.10747 z"
       id="path1218" />
  </g>
</svg>
