<?xml version="1.0" encoding="UTF-8" standalone="no"?>
<!-- Created with Inkscape (http://www.inkscape.org/) -->

<svg
   width="500"
   height="500"
   viewBox="0 0 132.29166 132.29167"
   version="1.1"
   id="svg5"
   inkscape:version="1.1.2 (b8e25be833, 2022-02-05)"
   sodipodi:docname="vote-icon.svg"
   xmlns:inkscape="http://www.inkscape.org/namespaces/inkscape"
   xmlns:sodipodi="http://sodipodi.sourceforge.net/DTD/sodipodi-0.dtd"
   xmlns="http://www.w3.org/2000/svg"
   xmlns:svg="http://www.w3.org/2000/svg">
  <sodipodi:namedview
     id="namedview7"
     pagecolor="#ffffff"
     bordercolor="#999999"
     borderopacity="1"
     inkscape:pageshadow="0"
     inkscape:pageopacity="0"
     inkscape:pagecheckerboard="0"
     inkscape:document-units="px"
     showgrid="false"
     inkscape:zoom="0.73406285"
     inkscape:cx="343.976"
     inkscape:cy="561.94098"
     inkscape:window-width="1920"
     inkscape:window-height="991"
     inkscape:window-x="-9"
     inkscape:window-y="-9"
     inkscape:window-maximized="1"
     inkscape:current-layer="layer1"
     units="px"
     width="500px" />
  <defs
     id="defs2" />
  <g
     inkscape:label="Layer 1"
     inkscape:groupmode="layer"
     id="layer1">
    <path
       style="fill:#000000;stroke-width:0.264583"
       d="m 4.7947366,132.05044 c -1.832411,-0.57213 -3.210435,-1.72589 -4.13526903,-3.46229 -0.472152,-0.88647 -0.496451,-2.28827 -0.568687,-32.808334 -0.05314,-22.45297 0.01029,-32.234424 0.214467,-33.072924 0.401119,-1.64724 1.45457203,-3.07831 2.88513303,-3.91933 l 1.209194,-0.71087 H 16.570407 c 13.58014,0 12.87838,-0.09 14.81063,1.89956 1.82369,1.8778 1.74201,0.12593 1.66386,35.687204 -0.0673,30.639094 -0.0913,32.038004 -0.56355,32.924694 -0.69033,1.29611 -1.70798,2.33256 -2.94635,3.0008 -1.0336,0.55773 -1.32731,0.57222 -12.56771,0.61982 -6.33016,0.0268 -11.8078064,-0.0444 -12.1725504,-0.15833 z M 19.083947,121.42217 c 1.60014,-0.72543 2.33172,-1.44401 3.07514,-3.02048 2.49283,-5.28614 -2.94837,-10.72733 -8.23451,-8.23451 -1.57647,0.74342 -2.29505,1.47501 -3.02048,3.07514 -0.9800204,2.1617 -0.50291,5.08236 1.11867,6.84804 1.59971,1.74185 4.81788,2.34883 7.06118,1.33181 z m 66.54271,10.59841 c -8.05168,-0.48571 -14.10997,-2.18518 -25.94322,-7.2776 -7.41139,-3.18948 -10.30677,-4.21298 -13.08282,-4.62469 -1.0914,-0.16187 -2.36415,-0.35048 -2.82832,-0.41913 -0.51184,-0.0757 -1.11051,-0.44163 -1.52135,-0.92989 l -0.67741,-0.80505 V 89.146466 60.328712 l 2.2754,-2.44893 c 3.51361,-3.78156 5.9421,-6.91016 11.17568,-14.39752 4.49724,-6.43393 6.36043,-8.82764 10.77902,-13.84828 2.77603,-3.15427 4.0055,-6.084772 6.21621,-14.81667 2.37364,-9.3754847 4.20272,-13.0808027 7.08693,-14.35664174 0.97625,-0.431846 1.48332,-0.48123 3.30729,-0.322098 6.97926,0.608906 11.73761,3.58347004 14.30301,8.94118804 1.41279,2.9505507 1.91807,4.9136217 2.30483,8.9545227 0.60538,6.325068 -0.3448,10.222949 -4.53684,18.611159 -1.59994,3.20145 -3.13722,6.47567 -3.41619,7.27604 l -0.50722,1.45521 14.598133,0.13826 c 14.19293,0.13443 14.64586,0.15455 16.31792,0.72485 7.23063,2.46622 11.63865,9.35889 10.58659,16.55395 -0.51912,3.5503 -1.87766,6.75543 -4.02408,9.493754 l -0.76945,0.98165 0.57373,1.79648 c 0.82369,2.57916 1.01515,7.96966 0.38458,10.82743 -0.547,2.479 -1.39913,4.66957 -2.53385,6.51371 l -0.83045,1.34966 0.35698,1.607 c 0.49298,2.21918 0.41192,6.732024 -0.16193,9.015344 -0.59203,2.35566 -2.15382,5.71474 -3.42633,7.36928 l -0.98741,1.28386 0.29818,2.29418 c 0.77477,5.96122 -1.69915,10.70592 -7.01443,13.45284 -3.90006,2.01553 -8.08853,2.8563 -16.189063,3.24966 -5.74056,0.27877 -7.37799,0.27768 -12.11412,-0.008 z"
       id="path840" />
  </g>
</svg>
