<?xml version="1.0" encoding="UTF-8" standalone="no"?>
<!-- Created with Inkscape (http://www.inkscape.org/) -->

<svg
   width="24"
   height="24"
   viewBox="0 0 6.3499997 6.3500002"
   version="1.1"
   id="svg5"
   inkscape:version="1.1.2 (b8e25be833, 2022-02-05)"
   sodipodi:docname="thumbs-down.svg"
   xmlns:inkscape="http://www.inkscape.org/namespaces/inkscape"
   xmlns:sodipodi="http://sodipodi.sourceforge.net/DTD/sodipodi-0.dtd"
   xmlns="http://www.w3.org/2000/svg"
   xmlns:svg="http://www.w3.org/2000/svg">
  <sodipodi:namedview
     id="namedview7"
     pagecolor="#ffffff"
     bordercolor="#999999"
     borderopacity="1"
     inkscape:pageshadow="0"
     inkscape:pageopacity="0"
     inkscape:pagecheckerboard="0"
     inkscape:document-units="px"
     showgrid="false"
     inkscape:zoom="0.73406285"
     inkscape:cx="292.20931"
     inkscape:cy="234.9935"
     inkscape:window-width="1920"
     inkscape:window-height="991"
     inkscape:window-x="-9"
     inkscape:window-y="-9"
     inkscape:window-maximized="1"
     inkscape:current-layer="layer1"
     units="px"
     width="500px" />
  <defs
     id="defs2" />
  <g
     inkscape:label="Layer 1"
     inkscape:groupmode="layer"
     id="layer1">
    <path
       style="fill:#ffffff;stroke-width:0.012714"
       d="m 6.1959899,0.06431657 c 0.088053,0.0274925 0.1542709,0.0829341 0.1987119,0.1663732 0.022688,0.0425975 0.023856,0.1099582 0.027327,1.57653733 0.00255,1.0789314 -4.945e-4,1.5489592 -0.010306,1.5892515 -0.019275,0.079155 -0.069896,0.1479219 -0.1386392,0.1883354 L 6.2149786,3.618973 H 5.6301342 c -0.6525657,0 -0.6188441,0.00432 -0.7116944,-0.091279 -0.087634,-0.090234 -0.083709,-0.00605 -0.079953,-1.7148755 0.00323,-1.47229883 0.00439,-1.53952063 0.02708,-1.58212873 0.033172,-0.062282 0.082073,-0.1120864 0.1415808,-0.1441973 0.049668,-0.026801 0.063781,-0.027497 0.6039156,-0.029784 0.3041828,-0.00129 0.5673999,0.00213 0.5849269,0.00761 z m -0.6866387,0.5107197 c -0.076891,0.0348591 -0.112046,0.069389 -0.1477695,0.145143 -0.1197879,0.2540146 0.1416778,0.51547983 0.3956924,0.39569253 0.075754,-0.035723 0.110284,-0.070879 0.145143,-0.14776963 0.047093,-0.103876 0.024166,-0.2442223 -0.053755,-0.3290685 -0.076871,-0.083701 -0.2315133,-0.1128682 -0.3393105,-0.0639974 z M 2.3117777,0.06575147 c 0.386907,0.0233397 0.6780257,0.1050043 1.2466483,0.3497101 0.3561391,0.1532639 0.4952707,0.2024461 0.6286681,0.22223 0.052445,0.007778 0.1136043,0.0168416 0.1359091,0.0201404 0.024595,0.003638 0.053363,0.0212217 0.073105,0.044684 l 0.032552,0.038685 V 2.1259791 3.5107572 L 4.3193204,3.6284355 C 4.1504811,3.8101506 4.033785,3.9604891 3.782296,4.3202788 3.5661904,4.6294482 3.4766586,4.744473 3.2643323,4.9857295 3.1309359,5.1373015 3.0718562,5.2781208 2.9656251,5.6977142 2.8515647,6.1482339 2.763672,6.3262854 2.6250772,6.3875932 2.5781652,6.4083442 2.5537992,6.4107172 2.4661521,6.4030712 2.1307781,6.3738112 1.9021253,6.2308747 1.7788503,5.9734205 1.7109616,5.8316378 1.6866814,5.7373065 1.6680964,5.5431293 1.6390061,5.2391911 1.6846651,5.0518864 1.886105,4.6488082 1.9629868,4.4949691 2.0368576,4.3376332 2.050263,4.299173 L 2.074636,4.229246 1.3731526,4.222606 C 0.69114046,4.216146 0.66937576,4.215176 0.58902836,4.187775 0.24157566,4.0692618 0.02975736,3.7380486 0.08031196,3.3923048 0.10525716,3.2217024 0.17053906,3.0676864 0.27368086,2.9361019 l 0.036974,-0.047171 -0.027569,-0.086326 c -0.039581,-0.1239362 -0.048781,-0.3829656 -0.01848,-0.5202899 0.026285,-0.1191233 0.067232,-0.2243866 0.121759,-0.313003 l 0.039906,-0.064855 -0.017154,-0.077221 c -0.02369,-0.1066388 -0.019795,-0.3234942 0.00778,-0.4332145 0.028449,-0.1131964 0.1034974,-0.2746101 0.1646453,-0.3541157 l 0.047448,-0.061693 -0.014328,-0.1102421 C 0.57743216,0.58151627 0.69631136,0.35351937 0.95172626,0.22152177 1.1391356,0.12466967 1.340404,0.08426817 1.7296585,0.06536607 c 0.2758508,-0.0133958 0.3545342,-0.0133434 0.5821192,3.844e-4 z"
       id="path840" />
  </g>
</svg>
