<?xml version="1.0" encoding="UTF-8" standalone="no"?>
<!-- Created with Inkscape (http://www.inkscape.org/) -->

<svg
   width="24"
   height="24"
   viewBox="0 0 6.3499997 6.3500002"
   version="1.1"
   id="svg5"
   xmlns="http://www.w3.org/2000/svg"
   xmlns:svg="http://www.w3.org/2000/svg">
  <defs
     id="defs2" />
  <g
     id="layer1">
    <path
       style="fill:#ffffff;stroke-width:0.012714"
       d="M 0.29978745,6.398138 C 0.2117347,6.3706455 0.14551658,6.3152039 0.10107558,6.2317648 0.07838728,6.1891673 0.07721964,6.1218066 0.07374849,4.6552275 0.07119496,3.5762961 0.07424295,3.1062683 0.08405426,3.065976 0.10332921,2.9868212 0.15395074,2.9180541 0.22269342,2.8776406 l 0.0581053,-0.034159 h 0.58484441 c 0.65256577,0 0.61884417,-0.00432 0.71169447,0.091279 0.087634,0.090234 0.083709,0.00605 0.079953,1.7148755 -0.00323,1.4722988 -0.00439,1.5395206 -0.02708,1.5821287 -0.033172,0.062282 -0.082073,0.1120864 -0.1415808,0.1441973 -0.049668,0.026801 -0.063781,0.027497 -0.60391562,0.029784 -0.30418286,0.00129 -0.56739993,-0.00213 -0.58492696,-0.00761 z M 0.98642617,5.8874183 C 1.0633176,5.8525592 1.0984722,5.8180293 1.1341957,5.7422753 1.2539836,5.4882607 0.99251784,5.2267955 0.73850322,5.3465828 c -0.075754,0.035723 -0.11028392,0.070879 -0.14514297,0.1477696 -0.0470929,0.103876 -0.0241663,0.2442223 0.0537554,0.3290685 0.0768708,0.083701 0.23151335,0.1128682 0.33931052,0.063997 z M 4.1839997,6.3967031 C 3.7970927,6.3733634 3.505974,6.2916988 2.9373514,6.046993 2.5812123,5.8937291 2.4420807,5.8445469 2.3086833,5.824763 2.2562384,5.8169847 2.195079,5.8079214 2.1727742,5.8046226 2.1481788,5.800985 2.1194109,5.7834009 2.0996689,5.7599386 L 2.0671173,5.7212536 V 4.3364755 2.9516974 L 2.176457,2.8340191 C 2.3452963,2.652304 2.4619924,2.5019655 2.7134814,2.1421758 2.929587,1.8330064 3.0191188,1.7179816 3.2314451,1.4767251 3.3648415,1.3251531 3.4239212,1.1843338 3.5301523,0.76474035 3.6442127,0.31422065 3.7321054,0.13616919 3.8707002,0.07486136 3.9176119,0.05410988 3.9419781,0.05173683 4.0296253,0.0593836 4.3649993,0.08864333 4.5936521,0.2315799 4.7169271,0.48903406 4.7848158,0.63081673 4.809096,0.72514808 4.827681,0.91932529 4.8567713,1.2232635 4.8111123,1.4105682 4.6096724,1.8136464 4.5327906,1.9674855 4.4589198,2.1248214 4.4455144,2.1632816 l -0.024373,0.069927 0.7014834,0.00664 c 0.6820121,0.00646 0.7037768,0.00743 0.7841242,0.034831 C 6.2542017,2.3931928 6.46602,2.724406 6.4154654,3.0701498 6.3905202,3.2407522 6.3252383,3.3947682 6.2220965,3.5263527 l -0.036974,0.047171 0.027569,0.086326 c 0.039581,0.1239362 0.048781,0.3829656 0.01848,0.5202899 -0.026285,0.1191233 -0.067232,0.2243866 -0.121759,0.313003 l -0.039906,0.064855 0.017154,0.077221 c 0.02369,0.1066388 0.019795,0.3234942 -0.00778,0.4332145 -0.028449,0.1131964 -0.1034974,0.2746101 -0.1646453,0.3541157 l -0.047448,0.061693 0.014328,0.1102421 C 5.9183452,5.8809383 5.799466,6.1089352 5.5440511,6.2409328 5.3566418,6.3377849 5.1553734,6.3781864 4.7661189,6.3970885 4.4902681,6.4104843 4.4115847,6.4104319 4.1839997,6.3967041 Z"
       id="path840" />
  </g>
</svg>
